# xmcd
#
# Track frame offsets: 
#        150
#        18713
#        32875
#        49615
#        67410
#        86585
#        105923
#        118523
#        132043
#        147805
#        165810
#        184520
#        202763
#        221458
#        236928
#        253930
#
# Disc length: 3605 seconds
#
# Revision: 5
# Processed by: cddbd v1.5.2PL0 Copyright (c) Steve Scherf et al.
# Submitted via: ExactAudioCopyFreeDBPlugin 1.0
#
DISCID=da0e1310
DTITLE=Francis Goya - Plays His Favourite Hits CD1
DYEAR=2003
DGENRE=Instrumental Pop
TTITLE0=(Everything I Do) I Do It For You
TTITLE1=Melodia
TTITLE2=Sacrifice
TTITLE3=Be
TTITLE4=Cry For Help
TTITLE5=Send Me An Angel
TTITLE6=Natacha
TTITLE7=Sound Of Silence
TTITLE8=Promise Me
TTITLE9=Hello Again
TTITLE10=Secret Love
TTITLE11=When You Tell Me That You Love Me
TTITLE12=Winds Of Time
TTITLE13=Bridge Over Troubled Water
TTITLE14=Sorry Seems To Be The Hardest
TTITLE15=Love On The Rock
EXTD=
EXTT0=
EXTT1=
EXTT2=
EXTT3=
EXTT4=
EXTT5=
EXTT6=
EXTT7=
EXTT8=
EXTT9=
EXTT10=
EXTT11=
EXTT12=
EXTT13=
EXTT14=
EXTT15=
PLAYORDER=
